<?xml version="1.0" encoding="utf-8"?>
<!-- Generator: Adobe Illustrator 26.5.0, SVG Export Plug-In . SVG Version: 6.00 Build 0)  -->
<svg version="1.1" id="_x3C_Layer_x3E_" xmlns="http://www.w3.org/2000/svg" xmlns:xlink="http://www.w3.org/1999/xlink" x="0px"
	 y="0px" viewBox="0 0 1185.9 1185.9" style="enable-background:new 0 0 1185.9 1185.9;" xml:space="preserve">
<style type="text/css">
	.st0{fill:#00B50D;}
	.st1{fill:#FFFFFF;}
</style>
<g>
	<circle class="st0" cx="592.9" cy="592.9" r="592.9"/>
	<g>
		<path class="st1" d="M497.7,886.8L178.9,652.6c-26.5-19.4-32.2-57-12.8-83.5l0,0c19.4-26.5,57-32.2,83.5-12.8l318.8,234.2
			c26.5,19.4,32.2,57,12.8,83.5l0,0C561.7,900.5,524.2,906.2,497.7,886.8z"/>
		<path class="st1" d="M489.7,802.6l391.5-533c19.4-26.5,57-32.2,83.5-12.8l0,0c26.5,19.4,32.2,57,12.8,83.5L586,873.3
			c-19.4,26.5-57,32.2-83.5,12.8l0,0C476,866.6,470.3,829,489.7,802.6z"/>
	</g>
</g>
</svg>
