<?xml version="1.0" encoding="utf-8"?>
<!-- Generator: Adobe Illustrator 26.5.0, SVG Export Plug-In . SVG Version: 6.00 Build 0)  -->
<svg version="1.1" id="Layer_1" xmlns="http://www.w3.org/2000/svg" xmlns:xlink="http://www.w3.org/1999/xlink" x="0px" y="0px"
	 viewBox="0 0 300.4 138.2" style="enable-background:new 0 0 300.4 138.2;" xml:space="preserve">
<style type="text/css">
	.st0{fill:#FFFFFF;}
</style>
<g>
	
		<image style="overflow:visible;opacity:0.75;" width="1307" height="631" xlink:href="1EF8DB1B6FFDE46D.png"  transform="matrix(0.24 0 0 0.24 -6.6 -6.6)">
	</image>
	<g>
		<g>
			<path class="st0" d="M8.5,8.4H59c2.8,0,5.2,1,7.2,2.9c2,2,3,4.4,3,7.2v101.1c0,2.8-1,5.2-3,7.2c-2,2-4.4,2.9-7.2,2.9H8.5V8.4z
				 M48.9,28.6H28.7v80.9h20.2V28.6z"/>
			<path class="st0" d="M74.2,8.4h50.5v20.2H94.4V64l30.3-15.2v20.2L94.4,84.3v25.3h30.3v20.2H74.2V8.4z"/>
			<path class="st0" d="M129.8,8.4H150v101.1h30.3v20.2h-50.5V8.4z"/>
			<path class="st0" d="M185.8,28.6h-20.2V8.4h60.7v20.2H206v101.1h-20.2V28.6z"/>
			<path class="st0" d="M231.2,18.6c0-2.8,1-5.2,2.9-7.2c2-2,4.4-3,7.2-3h40.4c2.8,0,5.2,1,7.2,2.9c2,2,3,4.4,3,7.2v111.2h-20.2
				V74.1l-20.2,10.1v45.5h-20.2V18.6z M271.7,53.9V28.6h-20.2V64L271.7,53.9z"/>
		</g>
	</g>
</g>
</svg>
